<svg width="16" height="11" viewBox="0 0 16 11" fill="none" xmlns="http://www.w3.org/2000/svg">
<path d="M5.42676 8.40057C6.70233 7.32168 8.57111 7.32168 9.84668 8.40057C9.9107 8.45859 9.94745 8.54074 9.94922 8.62713C9.95095 8.71359 9.91719 8.79702 9.85547 8.8576L7.8584 10.8732C7.79987 10.9324 7.71997 10.966 7.63672 10.966C7.55346 10.966 7.47358 10.9324 7.41504 10.8732L5.41699 8.8576C5.35539 8.797 5.32147 8.71351 5.32324 8.62713C5.32507 8.54068 5.36262 8.45855 5.42676 8.40057ZM2.76172 5.71111C5.50981 3.15507 9.76555 3.15512 12.5137 5.71111C12.5756 5.77097 12.6113 5.85351 12.6123 5.93963C12.6132 6.02581 12.5793 6.10892 12.5186 6.1701L11.3643 7.33709C11.2453 7.45619 11.0527 7.45885 10.9307 7.34295C10.0282 6.52577 8.85417 6.07337 7.63672 6.07342C6.42003 6.07392 5.2466 6.52628 4.34473 7.34295C4.22265 7.45877 4.03007 7.45617 3.91113 7.33709L2.75684 6.1701C2.69617 6.10903 2.66227 6.02572 2.66309 5.93963C2.66402 5.8535 2.69975 5.77095 2.76172 5.71111ZM0.0966797 3.02947C4.3118 -1.0097 10.9618 -1.00995 15.1768 3.02947C15.2377 3.08942 15.2719 3.17156 15.2725 3.25701C15.273 3.34257 15.239 3.42481 15.1787 3.48553L14.0225 4.65252C13.9033 4.77199 13.7107 4.77324 13.5898 4.65545C11.9839 3.12872 9.85254 2.27765 7.63672 2.27752C5.42062 2.27751 3.28877 3.12856 1.68262 4.65545C1.56183 4.77344 1.36905 4.77222 1.25 4.65252L0.09375 3.48553C0.0334857 3.42476 -0.000563029 3.34259 0 3.25701C0.00061595 3.1715 0.0356689 3.08939 0.0966797 3.02947Z" fill="black"/>
</svg>
